<?xml version="1.0" encoding="iso-8859-1"?>
<!-- Generator: Adobe Illustrator 16.0.0, SVG Export Plug-In . SVG Version: 6.00 Build 0)  -->
<!DOCTYPE svg PUBLIC "-//W3C//DTD SVG 1.1//EN" "http://www.w3.org/Graphics/SVG/1.1/DTD/svg11.dtd">
<svg xmlns="http://www.w3.org/2000/svg" xmlns:xlink="http://www.w3.org/1999/xlink" version="1.1" id="Capa_1" x="0px" y="0px" width="512px" height="512px" viewBox="0 0 612 612" style="enable-background:new 0 0 612 612;" xml:space="preserve">
<g>
	<g>
		<g>
			<g>
				<g>
					<path d="M306.335,611.993c-8.544,0-17.218-0.361-25.777-1.074c-81.445-6.795-155.37-44.9-208.156-107.297       C19.617,441.225-5.711,362.007,1.083,280.561c6.423-76.967,41.309-148.06,98.237-200.183       C155.926,28.549,229.205,0.007,305.659,0.007c8.544,0,17.217,0.361,25.776,1.076c81.449,6.795,155.376,44.9,208.162,107.295       s78.114,141.613,71.319,223.06c-6.421,76.97-41.309,148.062-98.235,200.185C456.076,583.45,382.795,611.993,306.335,611.993z        M305.659,8.038c-74.443,0-145.794,27.796-200.915,78.264c-55.432,50.754-89.402,119.98-95.658,194.926       C2.47,360.536,27.131,437.677,78.534,498.435c51.4,60.76,123.384,97.865,202.693,104.48c8.337,0.694,16.786,1.049,25.109,1.049       c74.447,0,145.801-27.795,200.922-78.266c55.435-50.752,89.404-119.98,95.658-194.929       c6.615-79.309-18.046-156.447-69.448-217.206C482.065,52.807,410.079,15.703,330.767,9.084       C322.43,8.391,313.981,8.038,305.659,8.038z" fill="#220f0d"/>
				</g>
			</g>
			<g>
				<rect x="346.039" y="240.696" width="8.031" height="185.702" fill="#220f0d"/>
				<rect x="296.787" y="240.696" width="8.031" height="185.702" fill="#220f0d"/>
				<rect x="247.534" y="240.696" width="8.031" height="185.702" fill="#220f0d"/>
				<path d="M456.311,182.916l-87.582-24.963c1.175-1.637,1.901-3.433,2.343-4.958l5.997-20.802      c3.177-11.008-3.199-22.546-14.207-25.715l-69.52-20.002c-1.855-0.535-3.726-0.798-5.571-0.812      c-9.092-0.072-17.516,5.883-20.152,15.037l-6.002,20.799c-0.633,2.188-0.77,4.087-0.62,5.75l-89.59-25.534l-2.202,7.724      l149.29,42.55l-50.102,12.839l-28.128-18.001l-40.451,43.689h-42.7v8.03h27.137v237.007c0,18.777,15.271,34.039,34.04,34.039      h171.132c18.767,0,34.036-15.262,34.036-34.039V198.545h31.144v-8.03h-0.455L456.311,182.916z M415.428,435.552      c0,14.342-11.667,26.008-26.006,26.008H218.29c-14.342,0-26.009-11.668-26.009-26.008v-236.71H415.43v236.709L415.428,435.552      L415.428,435.552z M349.73,152.532l-0.076-0.024l-0.075-0.021l-74.852-21.435c-1.796-0.517-3.774-1.206-4.825-2.366      c-0.416-0.461-1.515-1.687-0.57-4.969l6.003-20.8c1.579-5.477,6.664-9.271,12.366-9.226c1.148,0.01,2.298,0.177,3.416,0.5      l69.517,20.004c6.754,1.943,10.664,9.021,8.715,15.777l-5.996,20.797c-1.161,4.021-3.143,4.007-4.589,3.994      c-0.567-0.005-1.195-0.069-1.863-0.183l-6.916-1.972L349.73,152.532z M241.596,157.211l25.407,16.264l66.606-17.07l-0.031-0.119      l14.081,4.014l4.971,1.529c0.822,0.236,1.597,0.41,2.349,0.556l98.696,28.129H210.756L241.596,157.211z" fill="#220f0d"/>
			</g>
		</g>
	</g>
</g>
<g>
</g>
<g>
</g>
<g>
</g>
<g>
</g>
<g>
</g>
<g>
</g>
<g>
</g>
<g>
</g>
<g>
</g>
<g>
</g>
<g>
</g>
<g>
</g>
<g>
</g>
<g>
</g>
<g>
</g>
</svg>
