<?xml version="1.0" encoding="iso-8859-1"?>
<!-- Generator: Adobe Illustrator 16.0.0, SVG Export Plug-In . SVG Version: 6.00 Build 0)  -->
<!DOCTYPE svg PUBLIC "-//W3C//DTD SVG 1.1//EN" "http://www.w3.org/Graphics/SVG/1.1/DTD/svg11.dtd">
<svg xmlns="http://www.w3.org/2000/svg" xmlns:xlink="http://www.w3.org/1999/xlink" version="1.1" id="Capa_1" x="0px" y="0px" width="512px" height="512px" viewBox="0 0 612.001 612" style="enable-background:new 0 0 612.001 612;" xml:space="preserve">
<g>
	<g>
		<g>
			<path d="M192.28,435.551c0,14.342,11.668,26.008,26.009,26.008h171.132c14.341,0,26.006-11.668,26.006-26.008v-236.71H192.28     V435.551z M346.038,240.695h8.031v185.702h-8.031V240.695z M296.786,240.695h8.03v185.702h-8.03V240.695z M247.533,240.695h8.03     v185.702h-8.03V240.695z" fill="#220f0d"/>
			<path d="M352.627,161.827l-4.972-1.529l-14.08-4.014l0.03,0.119l-66.604,17.069l-25.407-16.262l-30.837,33.304h242.914     l-98.696-28.132C354.225,162.237,353.449,162.063,352.627,161.827z" fill="#220f0d"/>
			<path d="M349.653,152.508l0.075,0.024l0.255,0.079l6.915,1.972c0.669,0.114,1.297,0.178,1.864,0.183     c1.445,0.013,3.428,0.027,4.589-3.995l5.995-20.799c1.95-6.755-1.961-13.833-8.715-15.776l-69.517-20.004     c-1.118-0.323-2.268-0.49-3.416-0.5c-5.702-0.045-10.787,3.749-12.365,9.226l-6.004,20.801c-0.944,3.281,0.156,4.508,0.57,4.969     c1.051,1.16,3.029,1.847,4.824,2.366l74.851,21.435L349.653,152.508z" fill="#220f0d"/>
			<path d="M539.598,108.378C486.81,45.982,412.883,7.876,331.434,1.083c-8.559-0.715-17.229-1.076-25.775-1.076     c-76.454,0-149.732,28.542-206.337,80.371C42.393,132.5,7.506,203.592,1.083,280.561     c-6.793,81.446,18.533,160.665,71.319,223.061c52.786,62.396,126.712,100.502,208.158,107.297     c8.559,0.713,17.231,1.076,25.777,1.076c76.457,0,149.738-28.543,206.346-80.371c56.928-52.123,91.814-123.217,98.235-200.185     C617.71,249.991,592.384,170.773,539.598,108.378z M454.602,190.514v8.03h-31.145v237.007c0,18.777-15.272,34.039-34.036,34.039     H218.289c-18.771,0-34.039-15.262-34.039-34.039V198.544h-27.137v-8.03h42.701l40.451-43.689l28.128,18.001l50.101-12.839     l-149.289-42.55l2.202-7.724l89.59,25.534c-0.149-1.663-0.013-3.563,0.62-5.75l6.002-20.799     c2.636-9.153,11.06-15.109,20.151-15.037c1.844,0.015,3.715,0.278,5.572,0.812l69.519,20.002     c11.009,3.169,17.383,14.705,14.208,25.715l-5.997,20.802c-0.44,1.525-1.168,3.323-2.343,4.958l87.582,24.962l-2.166,7.599h0.456     L454.602,190.514L454.602,190.514z" fill="#220f0d"/>
		</g>
	</g>
</g>
<g>
</g>
<g>
</g>
<g>
</g>
<g>
</g>
<g>
</g>
<g>
</g>
<g>
</g>
<g>
</g>
<g>
</g>
<g>
</g>
<g>
</g>
<g>
</g>
<g>
</g>
<g>
</g>
<g>
</g>
</svg>
